<mxfile host="65bd71144e">
    <diagram id="gps8uLb0SJ7cw8a0Ev3l" name="PÃ¡gina-1">
        <mxGraphModel dx="456" dy="649" grid="1" gridSize="10" guides="1" tooltips="1" connect="1" arrows="1" fold="1" page="1" pageScale="1" pageWidth="827" pageHeight="1169" math="0" shadow="0">
            <root>
                <mxCell id="0"/>
                <mxCell id="1" parent="0"/>
                <mxCell id="2" value="Cart Context" style="rounded=1;whiteSpace=wrap;html=1;fontFamily=Tahoma;" parent="1" vertex="1">
                    <mxGeometry x="434" y="440" width="120" height="60" as="geometry"/>
                </mxCell>
                <mxCell id="3" value="products" style="text;html=1;align=center;verticalAlign=middle;resizable=0;points=[];autosize=1;strokeColor=none;fillColor=none;fontFamily=Tahoma;" parent="1" vertex="1">
                    <mxGeometry x="459" y="410" width="70" height="30" as="geometry"/>
                </mxCell>
                <mxCell id="13" style="edgeStyle=none;html=1;exitX=0.5;exitY=0;exitDx=0;exitDy=0;fontFamily=Tahoma;entryX=0;entryY=0.5;entryDx=0;entryDy=0;" parent="1" source="4" target="10" edge="1">
                    <mxGeometry relative="1" as="geometry">
                        <mxPoint x="374" y="540" as="targetPoint"/>
                        <Array as="points">
                            <mxPoint x="374" y="560"/>
                        </Array>
                    </mxGeometry>
                </mxCell>
                <mxCell id="4" value="Product Page" style="rounded=1;whiteSpace=wrap;html=1;fontFamily=Tahoma;" parent="1" vertex="1">
                    <mxGeometry x="314" y="600" width="120" height="60" as="geometry"/>
                </mxCell>
                <mxCell id="10" value="add product" style="text;html=1;strokeColor=none;fillColor=none;align=center;verticalAlign=middle;whiteSpace=wrap;rounded=0;fontFamily=Tahoma;" parent="1" vertex="1">
                    <mxGeometry x="404" y="545" width="70" height="30" as="geometry"/>
                </mxCell>
                <mxCell id="26" style="edgeStyle=elbowEdgeStyle;elbow=vertical;html=1;entryX=1;entryY=0.5;entryDx=0;entryDy=0;fontFamily=Tahoma;exitX=0.5;exitY=0;exitDx=0;exitDy=0;" parent="1" source="18" target="19" edge="1">
                    <mxGeometry relative="1" as="geometry">
                        <Array as="points">
                            <mxPoint x="604" y="560"/>
                        </Array>
                    </mxGeometry>
                </mxCell>
                <mxCell id="18" value="Cart Component" style="rounded=1;whiteSpace=wrap;html=1;fontFamily=Tahoma;" parent="1" vertex="1">
                    <mxGeometry x="564" y="600" width="120" height="60" as="geometry"/>
                </mxCell>
                <mxCell id="19" value="get products" style="text;html=1;strokeColor=none;fillColor=none;align=center;verticalAlign=middle;whiteSpace=wrap;rounded=0;fontFamily=Tahoma;" parent="1" vertex="1">
                    <mxGeometry x="514" y="545" width="70" height="30" as="geometry"/>
                </mxCell>
                <mxCell id="28" value="" style="endArrow=none;html=1;fontFamily=Tahoma;elbow=vertical;exitX=1;exitY=0.5;exitDx=0;exitDy=0;entryX=0;entryY=0.5;entryDx=0;entryDy=0;" parent="1" source="10" target="19" edge="1">
                    <mxGeometry width="50" height="50" relative="1" as="geometry">
                        <mxPoint x="484" y="535" as="sourcePoint"/>
                        <mxPoint x="534" y="485" as="targetPoint"/>
                        <Array as="points">
                            <mxPoint x="494" y="560"/>
                        </Array>
                    </mxGeometry>
                </mxCell>
                <mxCell id="30" value="Restaurant Page" style="rounded=1;whiteSpace=wrap;html=1;fontFamily=Tahoma;" parent="1" vertex="1">
                    <mxGeometry x="144" y="600" width="120" height="60" as="geometry"/>
                </mxCell>
                <mxCell id="31" value="" style="endArrow=none;html=1;fontFamily=Tahoma;elbow=vertical;exitX=1;exitY=0.5;exitDx=0;exitDy=0;entryX=0;entryY=0.5;entryDx=0;entryDy=0;" parent="1" source="30" target="4" edge="1">
                    <mxGeometry width="50" height="50" relative="1" as="geometry">
                        <mxPoint x="214" y="490" as="sourcePoint"/>
                        <mxPoint x="264" y="440" as="targetPoint"/>
                    </mxGeometry>
                </mxCell>
                <mxCell id="32" value="get products" style="text;html=1;strokeColor=none;fillColor=none;align=center;verticalAlign=middle;whiteSpace=wrap;rounded=0;fontFamily=Tahoma;" parent="1" vertex="1">
                    <mxGeometry x="254" y="455" width="70" height="30" as="geometry"/>
                </mxCell>
                <mxCell id="33" value="" style="endArrow=none;html=1;fontFamily=Tahoma;elbow=vertical;exitX=1;exitY=0.5;exitDx=0;exitDy=0;entryX=0;entryY=0.5;entryDx=0;entryDy=0;" parent="1" source="32" target="2" edge="1">
                    <mxGeometry width="50" height="50" relative="1" as="geometry">
                        <mxPoint x="384" y="470" as="sourcePoint"/>
                        <mxPoint x="434" y="420" as="targetPoint"/>
                    </mxGeometry>
                </mxCell>
                <mxCell id="34" value="" style="endArrow=none;html=1;fontFamily=Tahoma;elbow=vertical;exitX=0.5;exitY=0;exitDx=0;exitDy=0;entryX=0;entryY=0.5;entryDx=0;entryDy=0;" parent="1" source="30" edge="1">
                    <mxGeometry width="50" height="50" relative="1" as="geometry">
                        <mxPoint x="144" y="469.5" as="sourcePoint"/>
                        <mxPoint x="254" y="469.5" as="targetPoint"/>
                        <Array as="points">
                            <mxPoint x="204" y="470"/>
                        </Array>
                    </mxGeometry>
                </mxCell>
                <mxCell id="36" value="" style="endArrow=none;html=1;fontFamily=Tahoma;elbow=vertical;entryX=0.5;entryY=1;entryDx=0;entryDy=0;" parent="1" target="2" edge="1">
                    <mxGeometry width="50" height="50" relative="1" as="geometry">
                        <mxPoint x="494" y="560" as="sourcePoint"/>
                        <mxPoint x="524" y="510" as="targetPoint"/>
                    </mxGeometry>
                </mxCell>
            </root>
        </mxGraphModel>
    </diagram>
</mxfile>